<svg width="20" height="21" viewBox="0 0 20 21" fill="none" xlink:href="data:image/png;base64">
<path d="M18.4006 0.12072H1.70878C0.797082 0.12072 0 0.77714 0 1.67842V18.4067C0 19.3132 0.797082 20.1207 1.70878 20.1207H18.3954C19.3123 20.1207 20 19.308 20 18.4067V1.67842C20.0052 0.77714 19.3123 0.12072 18.4006 0.12072ZM6.19952 16.7917H3.3342V7.88315H6.19952V16.7917ZM4.86584 6.52863H4.845C3.9281 6.52863 3.3342 5.84616 3.3342 4.99177C3.3342 4.12176 3.94373 3.45492 4.88147 3.45492C5.81922 3.45492 6.39228 4.11655 6.41312 4.99177C6.41312 5.84616 5.81922 6.52863 4.86584 6.52863ZM16.671 16.7917H13.8057V11.9207C13.8057 10.7537 13.3889 9.9566 12.3522 9.9566C11.5603 9.9566 11.0914 10.4932 10.883 11.0142C10.8049 11.2017 10.784 11.457 10.784 11.7175V16.7917H7.91872V7.88315H10.784V9.12305C11.2008 8.52915 11.852 7.67476 13.368 7.67476C15.2487 7.67476 16.671 8.91466 16.671 11.5872V16.7917V16.7917Z" fill="#757575"/>
</svg>
